# xmcd
#
# Track frame offsets:
#	150
#	9839
#	24509
#	41672
#	59208
#	79214
#	99554
#	118880
#
# Disc length: 1913 seconds
#
# Revision: 0
# Processed by: cddbd v1.5.2PL0 Copyright (c) Steve Scherf et al.
# Submitted via: audiograbber 1.83.01
#
DISCID=65077708
DTITLE=The Jimi Hendrix Experience - Live in Stockholm
DYEAR=1967
DGENRE=Rock
TTITLE0=Sgt. Peppers Lonely Hearts Club Band
TTITLE1=Fire
TTITLE2=The Wind Cries Mary
TTITLE3=Foxy Lady
TTITLE4=Hey Joe
TTITLE5=I Don't Live Today
TTITLE6=The Burning Of The Midnight Lamp
TTITLE7=Purple Haze
EXTD=YEAR: 1967
EXTT0=
EXTT1=
EXTT2=
EXTT3=
EXTT4=
EXTT5=
EXTT6=
EXTT7=
PLAYORDER=
